<?xml version="1.0" encoding="UTF-8" standalone="no"?>
<!-- Created with Inkscape (http://www.inkscape.org/) -->

<svg
   version="1.1"
   id="svg9"
   width="336"
   height="78"
   viewBox="0 0 336 78"
   sodipodi:docname="bitexbot-logo-text.svg"
   inkscape:version="1.1 (c68e22c387, 2021-05-23)"
   xmlns:inkscape="http://www.inkscape.org/namespaces/inkscape"
   xmlns:sodipodi="http://sodipodi.sourceforge.net/DTD/sodipodi-0.dtd"
   xmlns="http://www.w3.org/2000/svg"
   xmlns:svg="http://www.w3.org/2000/svg">
  <defs
     id="defs13" />
  <sodipodi:namedview
     id="namedview11"
     pagecolor="#ffffff"
     bordercolor="#666666"
     borderopacity="1.0"
     inkscape:pageshadow="2"
     inkscape:pageopacity="0"
     inkscape:pagecheckerboard="true"
     showgrid="false"
     fit-margin-top="0"
     fit-margin-left="0"
     fit-margin-right="0"
     fit-margin-bottom="0"
     inkscape:zoom="1.0666667"
     inkscape:cx="124.6875"
     inkscape:cy="-26.718749"
     inkscape:window-width="1366"
     inkscape:window-height="705"
     inkscape:window-x="-8"
     inkscape:window-y="-8"
     inkscape:window-maximized="1"
     inkscape:current-layer="g15"
     height="78px" />
  <g
     inkscape:groupmode="layer"
     inkscape:label="Image"
     id="g15"
     style="display:inline">
    <g
       id="g123"
       style="display:inline;fill:#7367f0;fill-opacity:1">
      <path
         style="display:inline;fill:#7367f0;fill-opacity:1"
         d="M 21.636392,72.458543 C 15.111408,69.487319 9.1489079,66.538546 8.3863922,65.905714 7.6238765,65.272882 7,63.280211 7,61.477555 7,59.065111 6.0761745,57.276175 3.5,54.7 0.19651741,51.396517 0,50.82381 0,44.5 0,38.17619 0.19651741,37.603483 3.5,34.3 6.860118,30.939882 7,30.508525 7,23.506989 7,15.2312 6.7702468,15.464718 15.932477,14.42813 L 22,13.741667 V 6.8708337 0 L 39.75,0.01314715 C 56.831676,0.02579929 57.989477,0.15717333 70.5,3.5023073 78.363688,5.6049444 83.993876,7.65077 84.75,8.6802898 85.664933,9.9260407 86,16.583554 86,33.516816 86,56.220255 85.958071,56.690447 83.75,58.748213 80.604878,61.679245 40.471638,78.015995 36.626633,77.930384 34.906985,77.892095 28.161376,75.429767 21.636392,72.458543 Z m 34.53306,-10.99923 C 66.74247,57.311936 75.97967,53.431836 76.696561,52.836869 77.687817,52.0142 78,46.994287 78,31.877555 V 12 H 64.5 51 v 5.877555 c 0,7.19644 -0.940434,8.125346 -8.962642,8.852774 L 36,27.277777 V 48.138889 C 36,59.6125 36.212801,69 36.47289,69 c 0.26009,0 9.123543,-3.393309 19.696562,-7.540687 z m -1.863688,-6.874241 c -1.54317,-1.328211 -2.537366,-2.684109 -2.209324,-3.013107 0.328041,-0.328997 4.265541,-1.664891 8.75,-2.968651 9.633042,-2.800602 10.582568,-1.797027 4.271207,4.514333 -4.498347,4.498347 -6.910122,4.825681 -10.811883,1.467425 z m -9.027688,-7.677908 c -5.091245,-1.883374 -5.137911,-8.164429 -0.0922,-12.410112 3.607011,-3.0351 4.782819,-3.09612 8.179268,-0.424472 3.320487,2.611895 3.370064,5.900228 0.146712,9.730964 -2.838368,3.373209 -5.149777,4.244466 -8.233777,3.10362 z m 18.752508,-6.850017 c -2.317775,-4.330802 3.718986,-9.963558 7.874193,-7.347218 2.270548,1.429658 2.51652,3.998145 0.654963,6.83924 -2.024076,3.089131 -6.989495,3.384861 -8.529156,0.507978 z M 22.730622,56.75 c 4.90144,-5.30395 5.352096,-16.363689 0.933923,-22.919815 -2.659188,-3.945968 -4.449541,-4.430287 -10.310801,-2.789236 -4.0483135,1.133458 -4.2530179,1.341301 -2.517967,2.556578 4.80766,3.367416 5.615435,16.164375 1.309644,20.74768 l -2.1887588,2.329826 2.2716688,1.094803 C 16.086646,59.629304 20.4625,59.204382 22.730622,56.75 Z"
         id="path125"
         sodipodi:nodetypes="sssssssscccsssssssssscccsscssssssssssssssssssssssscss" />
    </g>
    <text
       xml:space="preserve"
       style="font-style:normal;font-variant:normal;font-weight:normal;font-stretch:normal;font-size:48px;line-height:1.25;font-family:'Dunkin Sans';-inkscape-font-specification:'Dunkin Sans';letter-spacing:-2px;fill:#7367f0;fill-opacity:1;stroke:none"
       x="95.15625"
       y="57.640625"
       id="text2963"><tspan
         sodipodi:role="line"
         id="tspan2961"
         x="95.15625"
         y="57.640625">bitexbot</tspan></text>
  </g>
</svg>
